<?xml version="1.0" standalone="no"?><!DOCTYPE svg PUBLIC "-//W3C//DTD SVG 1.1//EN" "http://www.w3.org/Graphics/SVG/1.1/DTD/svg11.dtd"><svg class="icon" width="200px" height="200.00px" viewBox="0 0 1024 1024" version="1.1" xmlns="http://www.w3.org/2000/svg"><path fill="#333333" d="M860.377432 133.214001 163.652244 133.214001c-41.643446 0-75.546603 33.903158-75.546603 75.546603l0 510.917342c0 41.643446 33.903158 75.546603 75.546603 75.546603l252.743328 0 95.618754 95.559403 95.589079-95.559403 252.774027 0c41.643446 0 75.516928-33.903158 75.516928-75.546603L935.89436 208.761628C935.89436 167.117159 902.020878 133.214001 860.377432 133.214001zM877.749078 231.983515l0 464.473567c0 22.381753-18.21178 40.593534-40.593534 40.593534L579.520813 737.050616l-67.506487 67.565838-67.536162-67.565838L186.874131 737.050616c-22.412452 0-40.624233-18.21178-40.624233-40.593534L146.249899 231.983515c0-22.412452 18.21178-40.624233 40.624233-40.624233l650.28039 0C859.537298 191.360306 877.749078 209.571063 877.749078 231.983515zM302.83519 403.749554 741.266637 403.749554c14.851243 0 26.972305-12.481266 26.972305-27.812439 0-15.361873-12.121062-27.872814-26.972305-27.872814L302.83519 348.0643c-14.851243 0-26.942629 12.510942-26.942629 27.872814C275.892561 391.268288 287.983947 403.749554 302.83519 403.749554zM741.266637 496.578776 302.83519 496.578776c-14.851243 0-26.942629 12.510942-26.942629 27.842115 0 15.331173 12.091386 27.842115 26.942629 27.842115L741.266637 552.263006c14.851243 0 26.972305-12.510942 26.972305-27.842115C768.238942 509.089717 756.11788 496.578776 741.266637 496.578776z" /></svg>