<?xml version="1.0" standalone="no"?><!DOCTYPE svg PUBLIC "-//W3C//DTD SVG 1.1//EN" "http://www.w3.org/Graphics/SVG/1.1/DTD/svg11.dtd"><svg class="icon" width="200px" height="200.00px" viewBox="0 0 1024 1024" version="1.1" xmlns="http://www.w3.org/2000/svg"><path fill="#333333" d="M312.888889 113.777778h56.888889v56.888889h-56.888889zM483.555556 113.777778h56.888888v56.888889h-56.888888zM654.222222 113.777778h56.888889v56.888889h-56.888889zM312.888889 227.555556h56.888889v199.111111h-56.888889zM483.555556 227.555556h56.888888v199.111111h-56.888888zM654.222222 227.555556h56.888889v199.111111h-56.888889z"  /><path fill="#333333" d="M824.888889 853.333333V483.555556a28.444444 28.444444 0 0 0-28.444445-28.444445H227.555556a28.444444 28.444444 0 0 0-28.444445 28.444445v369.777777h625.777778zM227.555556 398.222222h568.888888a85.333333 85.333333 0 0 1 85.333334 85.333334v426.666666H142.222222V483.555556a85.333333 85.333333 0 0 1 85.333334-85.333334z"  /><path fill="#333333" d="M28.444444 853.333333h967.111112v56.888889H28.444444z"  /></svg>