<?xml version="1.0" standalone="no"?><!DOCTYPE svg PUBLIC "-//W3C//DTD SVG 1.1//EN" "http://www.w3.org/Graphics/SVG/1.1/DTD/svg11.dtd"><svg class="icon" width="200px" height="200.00px" viewBox="0 0 1024 1024" version="1.1" xmlns="http://www.w3.org/2000/svg"><path fill="#333333" d="M632 672a248 248 0 1 1 176-72.64 246.24 246.24 0 0 1-176 72.64z m0-448a200 200 0 1 0 141.44 341.44A200 200 0 0 0 632 224zM248 832a24.16 24.16 0 0 1-16.96-7.04 23.84 23.84 0 0 1 0-33.92l225.6-225.6a24 24 0 0 1 33.92 33.92l-225.6 225.6a24.16 24.16 0 0 1-16.96 7.04zM440 800a24.16 24.16 0 0 1-16.96-7.04l-160-160a24 24 0 0 1 33.92-33.92l160 160a23.84 23.84 0 0 1 0 33.92 24.16 24.16 0 0 1-16.96 7.04z" /></svg>