<?xml version="1.0" standalone="no"?><!DOCTYPE svg PUBLIC "-//W3C//DTD SVG 1.1//EN" "http://www.w3.org/Graphics/SVG/1.1/DTD/svg11.dtd"><svg class="icon" width="200px" height="200.00px" viewBox="0 0 1024 1024" version="1.1" xmlns="http://www.w3.org/2000/svg"><path fill="#333333" d="M401.28 846.72a248 248 0 1 1 176-72.64 247.2 247.2 0 0 1-176 72.64z m0-448a199.84 199.84 0 1 0 141.28 341.28 200 200 0 0 0-141.28-341.28zM568 448a24.16 24.16 0 0 1-16.96-7.04 23.84 23.84 0 0 1 0-33.92l224-224a24 24 0 0 1 33.92 33.92l-224 224a24.16 24.16 0 0 1-16.96 7.04zM792 448a24 24 0 0 1-24-24V224H568a24 24 0 0 1 0-48h224a24 24 0 0 1 24 24v224a24 24 0 0 1-24 24z" /></svg>